<svg version="1.1" id="Layer_1" xmlns="http://www.w3.org/2000/svg" xmlns:xlink="http://www.w3.org/1999/xlink" x="0px" y="0px" width="100%" viewBox="0 0 914 433" enable-background="new 0 0 914 433" xml:space="preserve">
<path fill="#FFFEFE" opacity="1.000000" stroke="none" d="&#10;M670.000000,434.000000 &#10;&#9;C446.666718,434.000000 223.833420,434.000000 1.000090,434.000000 &#10;&#9;C1.000060,289.666718 1.000060,145.333466 1.000030,1.000148 &#10;&#9;C305.666534,1.000098 610.333069,1.000098 914.999756,1.000049 &#10;&#9;C914.999817,145.333191 914.999817,289.666382 914.999878,433.999786 &#10;&#9;C833.500000,434.000000 752.000000,434.000000 670.000000,434.000000 &#10;M225.064697,214.564926 &#10;&#9;C217.590927,224.110428 210.055695,233.608765 202.676910,243.227142 &#10;&#9;C200.115234,246.566330 200.018021,249.984253 203.664108,252.849335 &#10;&#9;C207.168564,255.603134 210.245590,254.244644 213.017075,251.684387 &#10;&#9;C214.595840,250.225937 215.875137,248.443329 217.289429,246.806808 &#10;&#9;C225.439590,237.376114 233.032761,227.384811 241.849411,218.624939 &#10;&#9;C264.045807,196.571487 290.313141,180.665314 321.119598,174.833939 &#10;&#9;C349.709412,169.422180 378.084106,173.045700 405.540405,183.452057 &#10;&#9;C422.623779,189.926926 440.034698,195.549896 457.366943,201.350998 &#10;&#9;C467.064087,204.596634 476.808655,204.949234 486.751678,201.639648 &#10;&#9;C500.627655,197.020966 514.658569,192.861710 528.659729,188.626526 &#10;&#9;C553.684631,181.056778 578.603394,173.764008 605.424622,175.864685 &#10;&#9;C642.912598,178.800797 676.700195,190.504379 705.125305,215.484833 &#10;&#9;C713.568970,222.905273 720.576233,231.965225 728.197693,240.314102 &#10;&#9;C731.887695,244.356277 736.589966,245.388931 740.067139,242.779678 &#10;&#9;C743.169556,240.451614 743.558472,236.909912 739.579895,232.266022 &#10;&#9;C730.727234,221.933167 722.496460,210.580002 711.940002,202.277435 &#10;&#9;C662.388245,163.305328 606.385742,153.103409 545.733704,168.692139 &#10;&#9;C525.319336,173.939026 505.383514,181.068588 485.284027,187.509521 &#10;&#9;C477.614075,189.967361 470.055542,190.793732 462.298035,188.121948 &#10;&#9;C445.329041,182.277618 428.352234,176.455612 411.361053,170.676193 &#10;&#9;C396.237823,165.532120 381.094513,160.393707 364.953461,159.530457 &#10;&#9;C348.322876,158.641052 331.529266,157.201904 315.234955,161.436935 &#10;&#9;C280.457092,170.475983 250.613297,188.272644 225.064697,214.564926 &#10;M494.865723,64.361061 &#10;&#9;C472.014038,93.162697 459.643524,125.530075 461.144958,162.711060 &#10;&#9;C461.458557,170.476837 462.056061,171.987091 469.907349,172.224731 &#10;&#9;C485.079620,172.684021 500.232574,172.043732 514.690552,166.622696 &#10;&#9;C547.772095,154.218765 573.338989,132.250000 593.422546,103.680992 &#10;&#9;C612.786316,76.135956 622.905396,45.748688 620.046448,11.663806 &#10;&#9;C619.461304,4.686207 618.389038,3.140305 611.282837,3.156224 &#10;&#9;C605.821899,3.168458 600.239197,3.449045 594.922668,4.594512 &#10;&#9;C555.121460,13.169909 521.192261,31.774235 494.865723,64.361061 &#10;M641.403687,311.102264 &#10;&#9;C634.746826,310.868347 628.080444,310.786255 621.435303,310.366730 &#10;&#9;C609.984924,309.643829 598.471436,309.258850 587.130920,307.680328 &#10;&#9;C579.098511,306.562286 576.922974,302.273407 577.139099,292.522461 &#10;&#9;C577.311218,284.755524 580.101440,280.395874 587.743286,279.972717 &#10;&#9;C607.486145,278.879425 627.277344,278.511200 647.054321,278.271088 &#10;&#9;C652.977051,278.199158 657.803772,281.201233 659.042053,287.556305 &#10;&#9;C659.870850,291.809906 662.498291,292.756683 666.111267,292.785400 &#10;&#9;C668.230347,292.802277 670.349670,292.788483 672.566467,292.788483 &#10;&#9;C672.308533,283.192657 670.605896,274.765961 660.764526,271.340363 &#10;&#9;C655.165344,269.391357 649.284973,267.682281 643.420288,267.191956 &#10;&#9;C633.649719,266.375000 623.760864,266.064270 613.975586,266.573029 &#10;&#9;C603.071594,267.139954 591.948669,267.741394 581.428345,270.363220 &#10;&#9;C568.405273,273.608734 564.953186,279.606232 564.877075,292.926025 &#10;&#9;C564.865662,294.925049 564.874084,296.924591 564.904175,298.923401 &#10;&#9;C565.048828,308.525879 569.376709,315.032684 578.813232,316.883453 &#10;&#9;C588.223328,318.729034 597.924011,319.184357 607.520386,319.966095 &#10;&#9;C621.113953,321.073486 634.786987,321.433624 648.313416,323.054047 &#10;&#9;C657.114746,324.108429 660.717773,330.002838 659.727234,338.753265 &#10;&#9;C658.613159,348.594727 654.179688,353.939117 643.899597,354.544708 &#10;&#9;C627.303589,355.522369 610.637512,355.459412 593.999817,355.522156 &#10;&#9;C585.364746,355.554718 578.514771,353.100555 576.621399,342.858215 &#10;&#9;C575.751587,338.153259 570.509766,339.908844 567.121277,340.133575 &#10;&#9;C566.280701,340.189301 565.011292,343.338196 565.019775,345.059967 &#10;&#9;C565.068237,354.887207 570.098450,360.952789 581.112305,363.762238 &#10;&#9;C598.441406,368.182648 616.146423,367.748383 633.756592,366.348907 &#10;&#9;C641.800049,365.709686 649.857483,363.948792 657.641357,361.750427 &#10;&#9;C663.861389,359.993683 669.718445,356.076691 670.751160,349.269958 &#10;&#9;C671.882263,341.814575 671.584290,334.069794 671.214539,326.485016 &#10;&#9;C670.970093,321.472046 667.588501,317.521301 662.995117,316.022034 &#10;&#9;C656.299500,313.836609 649.256226,312.716003 641.403687,311.102264 &#10;M82.504974,327.026306 &#10;&#9;C89.837090,326.968262 97.190361,327.242615 104.496574,326.777588 &#10;&#9;C116.762001,325.996826 129.075668,325.280334 141.218262,323.505402 &#10;&#9;C149.410995,322.307861 153.160583,317.357361 153.943558,309.033478 &#10;&#9;C154.597534,302.081116 154.885971,295.072357 154.904999,288.087433 &#10;&#9;C154.933136,277.745605 148.593979,270.406097 138.266403,269.981262 &#10;&#9;C113.810165,268.975281 89.331085,268.484863 64.857338,267.972504 &#10;&#9;C58.928875,267.848358 52.985279,268.446991 46.863449,268.721588 &#10;&#9;C46.863449,300.858734 46.863449,332.225586 46.863449,363.953979 &#10;&#9;C51.659405,363.953979 55.712048,363.953979 60.161583,363.953979 &#10;&#9;C60.161583,351.706818 60.161583,339.768890 60.161583,327.038666 &#10;&#9;C67.537643,327.038666 74.522690,327.038666 82.504974,327.026306 &#10;M491.508240,331.886200 &#10;&#9;C510.264648,331.886200 529.021057,331.886200 548.385254,331.886200 &#10;&#9;C548.096130,325.438995 548.283020,320.265198 547.555420,315.223358 &#10;&#9;C545.744507,302.673645 537.029785,293.523651 524.348145,292.067902 &#10;&#9;C514.330688,290.917969 504.084167,290.558472 494.029663,291.219940 &#10;&#9;C479.000305,292.208710 469.902740,299.469513 466.513947,311.800842 &#10;&#9;C463.830750,321.564667 463.422028,331.558258 465.328400,341.488647 &#10;&#9;C468.189178,356.390503 477.969635,364.740845 493.173981,364.893616 &#10;&#9;C505.477386,365.017212 517.807129,364.699158 530.090881,363.985901 &#10;&#9;C542.552185,363.262329 547.733704,357.258820 548.169312,343.897308 &#10;&#9;C544.033752,344.730499 538.698486,341.253815 536.170166,346.832764 &#10;&#9;C533.477478,352.774231 528.872070,354.867523 523.085938,354.982452 &#10;&#9;C512.940186,355.183960 502.775574,355.270538 492.639557,354.874756 &#10;&#9;C484.238708,354.546753 479.562775,350.005341 478.141785,341.715027 &#10;&#9;C477.617157,338.654297 477.479706,335.527161 477.111603,331.897064 &#10;&#9;C481.898926,331.897064 486.206543,331.897064 491.508240,331.886200 &#10;M203.930115,301.149780 &#10;&#9;C210.401428,301.461121 216.909622,301.444397 223.334732,302.166718 &#10;&#9;C231.393646,303.072693 236.994583,308.638275 237.286438,316.524139 &#10;&#9;C237.809967,330.669556 237.720795,344.837555 237.904282,358.995911 &#10;&#9;C237.926987,360.747925 238.050980,362.498627 238.130478,364.305511 &#10;&#9;C242.923660,364.305511 247.192307,364.305511 252.312225,364.305511 &#10;&#9;C251.558655,346.423767 250.937485,328.829651 250.027222,311.250488 &#10;&#9;C249.549973,302.033813 244.319641,295.882935 235.674728,293.483032 &#10;&#9;C216.419525,288.137695 197.549133,288.033661 180.075638,299.652466 &#10;&#9;C179.893341,299.773682 179.480835,299.548676 179.044647,299.458008 &#10;&#9;C179.044647,294.326416 179.044662,289.176453 179.044662,284.026489 &#10;&#9;C179.044662,278.924713 179.044647,273.822937 179.044647,268.850372 &#10;&#9;C167.593735,266.538788 166.496033,267.130585 166.396729,277.832916 &#10;&#9;C166.133926,306.159149 166.158981,334.488037 166.092209,362.815918 &#10;&#9;C166.091171,363.261047 166.380035,363.706818 166.529160,364.139343 &#10;&#9;C171.011963,364.139343 175.375732,364.139343 179.954971,364.139343 &#10;&#9;C179.954971,347.718781 179.817566,331.727386 180.101486,315.743469 &#10;&#9;C180.144623,313.314789 181.614670,310.420044 183.335648,308.604187 &#10;&#9;C188.604065,303.045258 195.923508,302.290894 203.930115,301.149780 &#10;M691.819946,364.573029 &#10;&#9;C694.416809,364.573029 697.013733,364.573029 700.979797,364.573029 &#10;&#9;C700.979797,348.998169 700.727234,334.185608 701.069031,319.386780 &#10;&#9;C701.295471,309.581604 705.476257,304.232635 715.230347,303.109833 &#10;&#9;C725.397217,301.939514 735.804871,302.074127 746.051575,302.642822 &#10;&#9;C753.787903,303.072235 757.443787,306.859802 757.947815,314.922211 &#10;&#9;C758.850403,329.359558 758.860291,343.852936 759.227722,358.323303 &#10;&#9;C759.276550,360.245453 759.234436,362.169922 759.234436,364.199463 &#10;&#9;C764.012817,364.199463 768.064148,364.199463 772.628357,364.199463 &#10;&#9;C772.100159,346.520782 771.693359,329.223663 771.024536,311.936646 &#10;&#9;C770.639038,301.972992 765.419556,294.691833 755.712646,292.976593 &#10;&#9;C736.922180,289.656281 717.965454,287.479797 701.026306,299.906830 &#10;&#9;C700.887207,300.008850 700.451965,299.707336 699.826904,299.469299 &#10;&#9;C699.826904,289.143646 699.826904,278.697754 699.826904,267.838226 &#10;&#9;C697.709534,267.838226 695.905090,267.975830 694.128723,267.811035 &#10;&#9;C689.755249,267.405304 687.751526,268.933228 687.959595,273.681671 &#10;&#9;C688.221619,279.661316 687.766968,285.669037 687.745483,291.665039 &#10;&#9;C687.663086,314.649902 687.651123,337.634979 687.548950,360.619720 &#10;&#9;C687.537964,363.089661 687.740723,365.021179 691.819946,364.573029 &#10;M885.432129,350.098297 &#10;&#9;C874.676392,342.233887 863.920654,334.369507 852.441833,325.976349 &#10;&#9;C869.193542,314.753235 884.720825,304.350494 900.248047,293.947723 &#10;&#9;C896.705933,292.919250 893.390137,293.301086 890.199890,292.830933 &#10;&#9;C885.248596,292.101257 881.293518,293.600311 877.243042,296.339783 &#10;&#9;C868.153503,302.487244 858.824341,308.284241 849.523682,314.113678 &#10;&#9;C845.952148,316.352203 842.192505,318.290619 837.111450,321.160583 &#10;&#9;C837.111450,302.536560 837.111450,285.354767 837.111450,268.215454 &#10;&#9;C832.174072,268.215454 828.284546,268.215454 824.455688,268.215454 &#10;&#9;C824.455688,300.465149 824.455688,332.325287 824.455688,364.129578 &#10;&#9;C828.699768,364.129578 832.576050,364.129578 837.403442,364.129578 &#10;&#9;C837.403442,352.849060 837.403442,342.017456 837.403442,330.184662 &#10;&#9;C840.929443,332.383606 843.400696,333.727783 845.658264,335.366364 &#10;&#9;C856.160767,342.989349 867.200134,350.019104 876.886414,358.575531 &#10;&#9;C885.124329,365.852539 893.968994,364.616394 904.691406,364.324585 &#10;&#9;C897.710632,359.171051 891.857544,354.850037 885.432129,350.098297 &#10;M299.529297,365.006989 &#10;&#9;C307.858582,364.964722 316.204132,365.239166 324.513763,364.813354 &#10;&#9;C341.071106,363.964935 351.616943,353.089569 352.090454,336.626495 &#10;&#9;C352.281891,329.970459 352.267883,323.291809 351.956238,316.641785 &#10;&#9;C351.427246,305.354736 343.223175,294.494751 332.349304,293.117889 &#10;&#9;C319.381714,291.475952 306.114594,290.546875 293.101379,291.341736 &#10;&#9;C277.306915,292.306488 268.493073,299.701508 266.390106,312.380035 &#10;&#9;C265.016449,320.661377 264.836365,329.322571 265.475464,337.710449 &#10;&#9;C266.296265,348.482574 270.704620,358.063446 281.483612,362.280945 &#10;&#9;C286.723267,364.331085 292.828796,364.168091 299.529297,365.006989 &#10;M366.070740,343.499817 &#10;&#9;C366.070740,350.408447 366.070740,357.317078 366.070740,364.362701 &#10;&#9;C370.431702,364.362701 374.047058,364.362701 378.619568,364.362701 &#10;&#9;C378.619568,360.558563 378.532166,356.934326 378.635590,353.315521 &#10;&#9;C378.973022,341.507568 379.058105,329.679535 379.865479,317.902069 &#10;&#9;C380.476440,308.990540 384.453094,304.243683 393.277679,303.159637 &#10;&#9;C402.958832,301.970337 412.837036,301.975861 422.618408,302.135437 &#10;&#9;C431.204285,302.275543 436.291016,307.638916 437.014740,316.335876 &#10;&#9;C437.456177,321.640320 437.724579,326.970947 437.783020,332.292969 &#10;&#9;C437.899445,342.895935 437.817444,353.501068 437.817444,364.282440 &#10;&#9;C442.219086,364.282440 445.962738,364.282440 449.796722,364.282440 &#10;&#9;C449.796722,346.392181 450.306061,328.775085 449.600647,311.206726 &#10;&#9;C449.194519,301.091766 442.129883,294.159668 432.161987,291.994537 &#10;&#9;C419.954071,289.342834 407.655060,289.224854 395.632660,292.842316 &#10;&#9;C390.040283,294.524994 384.786346,297.332458 379.427032,299.609650 &#10;&#9;C378.038330,292.263519 375.734802,291.159576 366.070770,293.682648 &#10;&#9;C366.070770,309.903961 366.070770,326.201965 366.070740,343.499817 &#10;M10.152764,362.950775 &#10;&#9;C14.606164,363.698547 19.059565,364.446320 23.740334,365.232300 &#10;&#9;C23.740334,340.401611 23.740334,316.825684 23.740334,293.238159 &#10;&#9;C19.103735,293.238159 14.740409,293.238159 10.112979,293.238159 &#10;&#9;C10.112979,316.438110 10.112979,339.236298 10.152764,362.950775 &#10;M792.329956,317.499969 &#10;&#9;C792.329956,333.080414 792.329956,348.660858 792.329956,364.173767 &#10;&#9;C796.981384,364.173767 800.854919,364.173767 804.614990,364.173767 &#10;&#9;C804.614990,340.185547 804.614990,316.632111 804.614990,293.145325 &#10;&#9;C800.368530,293.145325 796.477905,293.145325 792.330139,293.145325 &#10;&#9;C792.330139,301.195190 792.330139,308.847595 792.329956,317.499969 &#10;M511.403870,386.415314 &#10;&#9;C508.368378,387.071686 503.397308,384.730835 503.254639,390.223053 &#10;&#9;C502.910217,403.483368 503.142883,416.758667 503.142883,430.585480 &#10;&#9;C505.555725,430.585480 507.845001,430.583740 510.134308,430.585785 &#10;&#9;C524.731445,430.598816 527.056824,430.042053 524.284119,412.129700 &#10;&#9;C523.874329,409.482178 523.716553,406.677490 524.106689,404.043945 &#10;&#9;C526.228699,389.719147 524.015747,386.720978 511.403870,386.415314 &#10;M745.545166,386.980469 &#10;&#9;C743.388184,387.069855 740.952393,386.557098 739.142090,387.395264 &#10;&#9;C736.668762,388.540436 732.922302,390.607269 732.809204,392.466919 &#10;&#9;C732.510620,397.373413 733.880249,402.380829 734.579285,407.348938 &#10;&#9;C734.892700,409.576050 735.818909,411.940704 735.373474,414.007294 &#10;&#9;C734.207397,419.417297 732.439209,424.697540 730.902893,430.057922 &#10;&#9;C735.489258,431.505341 736.918640,429.062561 737.835205,425.921509 &#10;&#9;C738.948730,422.105927 739.596191,418.073181 741.300171,414.547546 &#10;&#9;C742.077209,412.939819 744.822449,411.949219 746.855469,411.505859 &#10;&#9;C747.397156,411.387726 749.162720,414.244232 749.390686,415.871735 &#10;&#9;C749.872070,419.307983 749.492126,422.860931 749.912415,426.311554 &#10;&#9;C750.091919,427.785248 751.389282,429.122803 752.178711,430.522217 &#10;&#9;C753.112000,429.053741 754.788513,427.616089 754.850952,426.111481 &#10;&#9;C755.133240,419.307434 754.955872,412.484436 754.950562,405.668274 &#10;&#9;C754.945801,399.574463 754.949585,393.480682 754.949585,386.980713 &#10;&#9;C751.447571,386.980713 748.970642,386.980713 745.545166,386.980469 &#10;M589.189392,398.692841 &#10;&#9;C588.075195,409.176880 586.960999,419.660919 585.848633,430.127350 &#10;&#9;C590.859192,430.511200 592.127380,429.400421 592.896118,421.881561 &#10;&#9;C593.942017,411.652130 594.731445,401.396454 595.649292,390.942078 &#10;&#9;C599.217773,390.942078 602.438599,390.942078 606.087463,390.942078 &#10;&#9;C606.087463,392.727264 606.083252,394.194061 606.088074,395.660858 &#10;&#9;C606.120056,405.321777 606.013855,414.986938 606.303162,424.640167 &#10;&#9;C606.362305,426.612762 607.908081,428.540802 608.768555,430.489410 &#10;&#9;C609.723999,428.500702 611.426331,426.539276 611.500122,424.518372 &#10;&#9;C611.761108,417.369720 611.441772,410.200928 611.388000,403.039398 &#10;&#9;C611.348511,397.784149 611.380249,392.528381 611.380249,386.832672 &#10;&#9;C607.622925,386.832672 604.970093,386.921356 602.324890,386.817322 &#10;&#9;C590.656067,386.358521 590.656860,386.338440 589.189392,398.692841 &#10;M661.003723,396.496094 &#10;&#9;C660.855225,399.251251 660.706726,402.006378 660.553040,404.858551 &#10;&#9;C656.462891,405.226288 652.923889,405.544464 649.451782,405.856628 &#10;&#9;C648.174316,399.151611 650.126953,392.298737 645.436584,385.824860 &#10;&#9;C644.690918,387.650177 644.049072,388.500397 644.037109,389.359406 &#10;&#9;C643.866028,401.653412 643.701355,413.949066 643.779358,426.242798 &#10;&#9;C643.788513,427.673828 645.253540,429.095642 646.043640,430.521759 &#10;&#9;C647.010315,429.052277 648.709595,427.631256 648.810669,426.104462 &#10;&#9;C649.157288,420.867554 648.943726,415.593597 648.943726,410.318787 &#10;&#9;C653.380554,410.318787 657.123169,410.318787 661.245117,410.318787 &#10;&#9;C661.245117,414.062897 661.102783,417.531433 661.286804,420.982544 &#10;&#9;C661.456726,424.168701 661.976624,427.336212 662.342407,430.511902 &#10;&#9;C666.678528,424.541382 666.413269,390.830017 662.362488,385.737091 &#10;&#9;C661.830750,389.643280 661.427246,392.607574 661.003723,396.496094 &#10;M719.731384,393.880676 &#10;&#9;C719.383972,392.772522 719.317139,391.429108 718.628174,390.607361 &#10;&#9;C717.362549,389.097717 715.730408,387.895355 714.250977,386.564880 &#10;&#9;C713.205933,387.908783 711.709534,389.103851 711.207397,390.626770 &#10;&#9;C710.067871,394.082336 709.366089,397.687836 708.578979,401.252808 &#10;&#9;C706.753540,409.520081 704.870728,417.778351 703.305054,426.095551 &#10;&#9;C703.055603,427.420654 704.329895,429.032593 704.899658,430.511871 &#10;&#9;C706.121704,429.410034 707.416260,428.375092 708.526428,427.170166 &#10;&#9;C708.913879,426.749634 708.914124,425.916077 708.975098,425.260376 &#10;&#9;C709.320557,421.545044 711.434875,420.634705 714.861328,421.167877 &#10;&#9;C718.309631,421.704559 720.621826,423.141876 721.556213,426.746490 &#10;&#9;C722.295593,429.598846 723.927917,431.552277 727.863647,429.497009 &#10;&#9;C725.225708,417.901306 722.581055,406.275909 719.731384,393.880676 &#10;M691.973816,427.735626 &#10;&#9;C692.913940,428.607086 693.854004,429.478577 694.794067,430.350006 &#10;&#9;C695.506897,429.165253 696.824036,427.988159 696.839172,426.794586 &#10;&#9;C696.992920,414.648743 697.006531,402.499146 696.829712,390.353943 &#10;&#9;C696.810974,389.069244 695.325562,387.805908 694.520630,386.532654 &#10;&#9;C693.640503,387.868774 692.088745,389.162476 692.001221,390.548676 &#10;&#9;C691.690735,395.464844 691.880127,400.412628 691.880127,405.429230 &#10;&#9;C687.801636,405.429230 684.439880,405.429230 680.955505,405.429230 &#10;&#9;C680.781372,401.722687 680.877075,398.368988 680.394836,395.100555 &#10;&#9;C679.962524,392.169739 681.743591,387.951965 676.152649,386.546509 &#10;&#9;C675.757385,389.329590 675.212891,391.574463 675.161926,393.830505 &#10;&#9;C675.026489,399.818909 675.067566,405.812378 675.108276,411.803345 &#10;&#9;C675.142151,416.794037 675.143860,421.792389 675.461670,426.768066 &#10;&#9;C675.535889,427.930542 676.831177,429.015015 677.564636,430.135406 &#10;&#9;C678.346680,429.002899 679.590942,427.953583 679.812988,426.720245 &#10;&#9;C680.250977,424.286377 680.133911,421.751038 680.226440,419.256897 &#10;&#9;C680.592773,409.383362 680.932251,409.094818 690.979553,410.234283 &#10;&#9;C691.110657,410.249146 691.222900,410.429749 691.922729,411.026825 &#10;&#9;C691.922729,415.974182 691.922729,421.427948 691.973816,427.735626 &#10;M786.579773,421.192963 &#10;&#9;C789.994263,421.052399 791.946533,422.621948 792.173645,426.086182 &#10;&#9;C792.489136,430.898590 794.990051,431.395752 798.861450,429.761108 &#10;&#9;C796.072571,416.864471 793.455933,404.213562 790.490356,391.645020 &#10;&#9;C790.046753,389.764984 787.966492,388.271118 786.643433,386.598633 &#10;&#9;C785.135986,388.268433 782.754944,389.716797 782.266235,391.644806 &#10;&#9;C779.575439,402.259766 777.331848,412.988647 774.973572,423.686981 &#10;&#9;C774.523621,425.728333 774.247253,427.807922 773.890808,429.869904 &#10;&#9;C774.386292,430.244537 774.881775,430.619141 775.377258,430.993744 &#10;&#9;C776.878906,429.518250 779.343323,428.235199 779.684692,426.527771 &#10;&#9;C780.427185,422.813049 782.506897,421.552612 786.579773,421.192963 &#10;M803.468994,422.177521 &#10;&#9;C803.535461,423.340973 803.311462,424.625122 803.733459,425.640869 &#10;&#9;C804.445557,427.354950 805.566956,428.898987 806.516235,430.514526 &#10;&#9;C807.346985,428.732788 808.721985,427.002350 808.895813,425.158661 &#10;&#9;C809.264832,421.244904 809.008423,417.272186 809.008423,413.388031 &#10;&#9;C813.168213,412.808685 816.798218,412.449951 820.357849,411.739014 &#10;&#9;C821.897217,411.431580 824.085999,410.768829 824.618286,409.630737 &#10;&#9;C827.395935,403.691406 827.790649,397.276825 825.592163,391.181396 &#10;&#9;C823.944397,386.612427 819.104187,387.257782 815.209778,386.896576 &#10;&#9;C812.899475,386.682312 810.552185,386.904297 808.227112,386.802490 &#10;&#9;C805.020447,386.662048 803.898010,388.129608 803.888611,391.293304 &#10;&#9;C803.859009,401.277954 803.603455,411.261871 803.468994,422.177521 &#10;M845.540771,386.899170 &#10;&#9;C842.565247,386.787384 839.528015,386.282257 836.641235,386.735382 &#10;&#9;C835.267944,386.950928 833.158264,388.962799 833.123108,390.209991 &#10;&#9;C832.781372,402.325256 832.725708,414.451782 832.849121,426.572449 &#10;&#9;C832.862732,427.906097 834.506104,429.223145 835.393616,430.547882 &#10;&#9;C836.247437,429.166443 837.732117,427.831268 837.837341,426.394958 &#10;&#9;C838.160522,421.985229 837.955017,417.536743 837.955017,413.169464 &#10;&#9;C851.551392,412.121185 853.759705,410.820465 854.510193,403.773438 &#10;&#9;C855.760925,392.030304 854.398560,389.225159 845.540771,386.899170 &#10;M555.314575,399.249969 &#10;&#9;C555.284973,398.586060 555.288025,397.918854 555.220947,397.258759 &#10;&#9;C554.409546,389.275085 550.901978,386.274261 542.672546,386.508820 &#10;&#9;C535.507202,386.713104 533.291077,389.004852 533.049500,397.420807 &#10;&#9;C532.806152,405.895966 532.727783,414.393555 533.101929,422.858093 &#10;&#9;C533.215088,425.417450 534.557312,428.355957 536.268127,430.301575 &#10;&#9;C538.409607,432.736816 548.311157,432.099426 551.513367,429.835907 &#10;&#9;C555.738647,426.849152 555.278931,422.342041 554.860840,418.040558 &#10;&#9;C554.773499,417.141846 553.265564,415.739960 552.407898,415.736755 &#10;&#9;C551.541077,415.733521 550.203125,417.035278 549.898804,418.020844 &#10;&#9;C549.319824,419.895813 549.819702,422.208099 548.956970,423.861664 &#10;&#9;C548.110840,425.483582 546.130798,427.547546 544.643066,427.551697 &#10;&#9;C542.563904,427.557587 538.711060,425.896851 538.672424,424.837769 &#10;&#9;C538.300049,414.628540 538.380920,404.386078 538.917480,394.183868 &#10;&#9;C538.977661,393.039337 542.580017,391.456390 544.678772,391.195709 &#10;&#9;C547.554382,390.838501 549.192566,392.744690 549.105103,395.869415 &#10;&#9;C549.068298,397.186371 549.125122,398.604370 549.578064,399.811859 &#10;&#9;C550.155090,401.350189 551.176880,402.721649 552.006958,404.165039 &#10;&#9;C553.079407,402.785095 554.151794,401.405151 555.314575,399.249969 &#10;M626.239990,386.635925 &#10;&#9;C623.823608,386.512939 621.407227,386.389954 618.845825,386.259552 &#10;&#9;C618.845825,401.228638 618.845825,415.639160 618.845825,430.591370 &#10;&#9;C625.396790,430.062744 631.847961,432.035492 637.812683,429.047821 &#10;&#9;C637.828552,428.413971 637.844421,427.780090 637.860352,427.146240 &#10;&#9;C633.416809,426.749969 628.973267,426.353699 624.345459,425.940979 &#10;&#9;C624.345459,420.665100 624.345459,415.583038 624.345459,410.604980 &#10;&#9;C628.115417,409.994720 631.646301,409.423218 635.177124,408.851685 &#10;&#9;C635.176270,408.103973 635.175415,407.356262 635.174561,406.608582 &#10;&#9;C631.622620,406.152252 628.070679,405.695953 624.455383,405.231476 &#10;&#9;C624.455383,400.435791 624.455383,395.697083 624.455383,390.969147 &#10;&#9;C628.967773,390.628571 633.138367,390.313782 637.308960,389.999023 &#10;&#9;C637.352722,389.355469 637.396423,388.711914 637.440186,388.068359 &#10;&#9;C634.004944,387.611969 630.569702,387.155609 626.239990,386.635925 &#10;M887.828430,418.499878 &#10;&#9;C887.828430,415.749268 887.828430,412.998627 887.828430,410.674133 &#10;&#9;C892.020081,409.967346 895.403015,409.396912 898.786011,408.826477 &#10;&#9;C898.774353,408.079224 898.762634,407.332001 898.750977,406.584747 &#10;&#9;C895.229736,406.124268 891.708496,405.663788 888.109131,405.193085 &#10;&#9;C888.109131,400.364502 888.109131,395.773926 888.109131,391.196594 &#10;&#9;C892.694397,390.662506 897.016174,390.159088 901.338013,389.655670 &#10;&#9;C901.287476,389.028595 901.237000,388.401520 901.186523,387.774445 &#10;&#9;C896.479126,385.383453 891.406616,386.547516 886.396484,386.720490 &#10;&#9;C883.624878,386.816162 882.516174,388.051666 882.517212,390.655396 &#10;&#9;C882.522583,403.772949 882.519714,416.890503 882.519714,429.684662 &#10;&#9;C888.945251,429.684662 895.438782,429.684662 901.932251,429.684662 &#10;&#9;C901.972595,428.933105 902.012939,428.181549 902.053223,427.429962 &#10;&#9;C897.496643,426.897278 892.940002,426.364594 887.828247,425.767029 &#10;&#9;C887.828247,423.714233 887.828247,421.597504 887.828430,418.499878 &#10;M567.749146,396.541626 &#10;&#9;C567.749146,394.762634 567.749146,392.983643 567.749146,391.197632 &#10;&#9;C572.627380,390.663025 576.958496,390.188385 581.289551,389.713745 &#10;&#9;C581.241211,388.986542 581.192810,388.259338 581.144470,387.532135 &#10;&#9;C575.563416,385.430420 569.736511,386.291260 563.972168,387.218048 &#10;&#9;C563.339600,387.319763 562.549194,389.054565 562.542297,390.036957 &#10;&#9;C562.447815,403.422913 562.478699,416.809753 562.478699,429.646729 &#10;&#9;C568.807373,429.646729 574.986755,429.646729 581.166077,429.646729 &#10;&#9;C581.214294,428.881348 581.262512,428.115967 581.310791,427.350586 &#10;&#9;C576.984802,426.844330 572.658813,426.338074 568.133667,425.808502 &#10;&#9;C568.133667,420.637848 568.133667,415.462891 568.133667,410.615967 &#10;&#9;C571.934998,409.965881 575.309326,409.388824 578.683655,408.811737 &#10;&#9;C578.671753,408.053711 578.659912,407.295685 578.648010,406.537659 &#10;&#9;C575.140076,406.098145 571.632141,405.658630 567.748962,405.172089 &#10;&#9;C567.748962,402.456604 567.748962,399.987915 567.749146,396.541626 &#10;M860.052429,410.499878 &#10;&#9;C860.052429,417.087433 860.052429,423.674988 860.052429,430.925476 &#10;&#9;C866.561951,430.584564 872.280762,430.285034 877.999512,429.985535 &#10;&#9;C878.034851,429.120667 878.070129,428.255829 878.105408,427.390961 &#10;&#9;C874.088318,426.849030 870.071228,426.307098 865.249634,425.656647 &#10;&#9;C865.249634,414.244263 865.355530,402.935913 865.136047,391.633911 &#10;&#9;C865.102966,389.931702 863.551331,388.259003 862.702209,386.572632 &#10;&#9;C861.864014,388.382935 860.414185,390.155945 860.301086,392.010468 &#10;&#9;C859.946655,397.823822 860.095825,403.667877 860.052429,410.499878 &#10;M12.221463,280.680298 &#10;&#9;C15.808712,280.680298 19.395962,280.680298 22.820013,280.680298 &#10;&#9;C22.820013,276.429382 22.820013,272.530273 22.820013,268.720093 &#10;&#9;C10.388947,266.529694 7.889786,269.175903 12.221463,280.680298 &#10;M794.897705,281.001831 &#10;&#9;C797.842407,281.001831 800.787170,281.001831 803.827271,281.001831 &#10;&#9;C803.827271,276.576294 803.827271,272.680481 803.827271,268.000092 &#10;&#9;C800.608765,268.000092 797.647888,267.865601 794.712524,268.080597 &#10;&#9;C793.811829,268.146576 792.192383,269.252563 792.243774,269.741028 &#10;&#9;C792.639587,273.500000 793.365784,277.224182 794.897705,281.001831 &#10;z"/>
<path fill="#F4393F" opacity="1.000000" stroke="none" d="&#10;M225.314362,214.314636 &#10;&#9;C250.613297,188.272644 280.457092,170.475983 315.234955,161.436935 &#10;&#9;C331.529266,157.201904 348.322876,158.641052 364.953461,159.530457 &#10;&#9;C381.094513,160.393707 396.237823,165.532120 411.361053,170.676193 &#10;&#9;C428.352234,176.455612 445.329041,182.277618 462.298035,188.121948 &#10;&#9;C470.055542,190.793732 477.614075,189.967361 485.284027,187.509521 &#10;&#9;C505.383514,181.068588 525.319336,173.939026 545.733704,168.692139 &#10;&#9;C606.385742,153.103409 662.388245,163.305328 711.940002,202.277435 &#10;&#9;C722.496460,210.580002 730.727234,221.933167 739.579895,232.266022 &#10;&#9;C743.558472,236.909912 743.169556,240.451614 740.067139,242.779678 &#10;&#9;C736.589966,245.388931 731.887695,244.356277 728.197693,240.314102 &#10;&#9;C720.576233,231.965225 713.568970,222.905273 705.125305,215.484833 &#10;&#9;C676.700195,190.504379 642.912598,178.800797 605.424622,175.864685 &#10;&#9;C578.603394,173.764008 553.684631,181.056778 528.659729,188.626526 &#10;&#9;C514.658569,192.861710 500.627655,197.020966 486.751678,201.639648 &#10;&#9;C476.808655,204.949234 467.064087,204.596634 457.366943,201.350998 &#10;&#9;C440.034698,195.549896 422.623779,189.926926 405.540405,183.452057 &#10;&#9;C378.084106,173.045700 349.709412,169.422180 321.119598,174.833939 &#10;&#9;C290.313141,180.665314 264.045807,196.571487 241.849411,218.624939 &#10;&#9;C233.032761,227.384811 225.439590,237.376114 217.289429,246.806808 &#10;&#9;C215.875137,248.443329 214.595840,250.225937 213.017075,251.684387 &#10;&#9;C210.245590,254.244644 207.168564,255.603134 203.664108,252.849335 &#10;&#9;C200.018021,249.984253 200.115234,246.566330 202.676910,243.227142 &#10;&#9;C210.055695,233.608765 217.590927,224.110428 225.314362,214.314636 &#10;z"/>
<path fill="#F4393F" opacity="1.000000" stroke="none" d="&#10;M495.061218,64.065308 &#10;&#9;C521.192261,31.774235 555.121460,13.169909 594.922668,4.594512 &#10;&#9;C600.239197,3.449045 605.821899,3.168458 611.282837,3.156224 &#10;&#9;C618.389038,3.140305 619.461304,4.686207 620.046448,11.663806 &#10;&#9;C622.905396,45.748688 612.786316,76.135956 593.422546,103.680992 &#10;&#9;C573.338989,132.250000 547.772095,154.218765 514.690552,166.622696 &#10;&#9;C500.232574,172.043732 485.079620,172.684021 469.907349,172.224731 &#10;&#9;C462.056061,171.987091 461.458557,170.476837 461.144958,162.711060 &#10;&#9;C459.643524,125.530075 472.014038,93.162697 495.061218,64.065308 &#10;M543.446411,39.879093 &#10;&#9;C510.963470,60.823956 488.493164,89.231636 478.547577,126.969498 &#10;&#9;C475.788208,137.439743 474.151520,148.010773 475.508667,159.383728 &#10;&#9;C481.447906,158.722977 487.094208,158.346848 492.652161,157.433273 &#10;&#9;C518.016052,153.264130 539.094788,140.765182 557.418640,123.294624 &#10;&#9;C582.733826,99.158241 601.601440,71.349678 605.477722,35.493053 &#10;&#9;C606.136719,29.397081 605.570862,23.168694 605.570862,16.616825 &#10;&#9;C583.004761,21.047487 562.728638,28.122128 543.446411,39.879093 &#10;z"/>
<path fill="#F43A40" opacity="1.000000" stroke="none" d="&#10;M641.882446,311.121857 &#10;&#9;C649.256226,312.716003 656.299500,313.836609 662.995117,316.022034 &#10;&#9;C667.588501,317.521301 670.970093,321.472046 671.214539,326.485016 &#10;&#9;C671.584290,334.069794 671.882263,341.814575 670.751160,349.269958 &#10;&#9;C669.718445,356.076691 663.861389,359.993683 657.641357,361.750427 &#10;&#9;C649.857483,363.948792 641.800049,365.709686 633.756592,366.348907 &#10;&#9;C616.146423,367.748383 598.441406,368.182648 581.112305,363.762238 &#10;&#9;C570.098450,360.952789 565.068237,354.887207 565.019775,345.059967 &#10;&#9;C565.011292,343.338196 566.280701,340.189301 567.121277,340.133575 &#10;&#9;C570.509766,339.908844 575.751587,338.153259 576.621399,342.858215 &#10;&#9;C578.514771,353.100555 585.364746,355.554718 593.999817,355.522156 &#10;&#9;C610.637512,355.459412 627.303589,355.522369 643.899597,354.544708 &#10;&#9;C654.179688,353.939117 658.613159,348.594727 659.727234,338.753265 &#10;&#9;C660.717773,330.002838 657.114746,324.108429 648.313416,323.054047 &#10;&#9;C634.786987,321.433624 621.113953,321.073486 607.520386,319.966095 &#10;&#9;C597.924011,319.184357 588.223328,318.729034 578.813232,316.883453 &#10;&#9;C569.376709,315.032684 565.048828,308.525879 564.904175,298.923401 &#10;&#9;C564.874084,296.924591 564.865662,294.925049 564.877075,292.926025 &#10;&#9;C564.953186,279.606232 568.405273,273.608734 581.428345,270.363220 &#10;&#9;C591.948669,267.741394 603.071594,267.139954 613.975586,266.573029 &#10;&#9;C623.760864,266.064270 633.649719,266.375000 643.420288,267.191956 &#10;&#9;C649.284973,267.682281 655.165344,269.391357 660.764526,271.340363 &#10;&#9;C670.605896,274.765961 672.308533,283.192657 672.566467,292.788483 &#10;&#9;C670.349670,292.788483 668.230347,292.802277 666.111267,292.785400 &#10;&#9;C662.498291,292.756683 659.870850,291.809906 659.042053,287.556305 &#10;&#9;C657.803772,281.201233 652.977051,278.199158 647.054321,278.271088 &#10;&#9;C627.277344,278.511200 607.486145,278.879425 587.743286,279.972717 &#10;&#9;C580.101440,280.395874 577.311218,284.755524 577.139099,292.522461 &#10;&#9;C576.922974,302.273407 579.098511,306.562286 587.130920,307.680328 &#10;&#9;C598.471436,309.258850 609.984924,309.643829 621.435303,310.366730 &#10;&#9;C628.080444,310.786255 634.746826,310.868347 641.882446,311.121857 &#10;z"/>
<path fill="#F43A40" opacity="1.000000" stroke="none" d="&#10;M82.006348,327.032471 &#10;&#9;C74.522690,327.038666 67.537643,327.038666 60.161583,327.038666 &#10;&#9;C60.161583,339.768890 60.161583,351.706818 60.161583,363.953979 &#10;&#9;C55.712048,363.953979 51.659405,363.953979 46.863449,363.953979 &#10;&#9;C46.863449,332.225586 46.863449,300.858734 46.863449,268.721588 &#10;&#9;C52.985279,268.446991 58.928875,267.848358 64.857338,267.972504 &#10;&#9;C89.331085,268.484863 113.810165,268.975281 138.266403,269.981262 &#10;&#9;C148.593979,270.406097 154.933136,277.745605 154.904999,288.087433 &#10;&#9;C154.885971,295.072357 154.597534,302.081116 153.943558,309.033478 &#10;&#9;C153.160583,317.357361 149.410995,322.307861 141.218262,323.505402 &#10;&#9;C129.075668,325.280334 116.762001,325.996826 104.496574,326.777588 &#10;&#9;C97.190361,327.242615 89.837090,326.968262 82.006348,327.032471 &#10;M60.077503,279.723145 &#10;&#9;C60.077503,291.805145 60.077503,303.887115 60.077503,314.984161 &#10;&#9;C84.540771,314.984161 108.359161,315.063629 132.176270,314.924438 &#10;&#9;C137.657761,314.892395 141.230682,311.186249 141.812241,305.365631 &#10;&#9;C142.208496,301.399689 142.128006,297.378387 142.126541,293.381897 &#10;&#9;C142.122910,283.465149 139.963791,280.410797 130.160156,280.104065 &#10;&#9;C107.031128,279.380249 83.880806,279.336792 60.077503,279.723145 &#10;z"/>
<path fill="#F43A40" opacity="1.000000" stroke="none" d="&#10;M491.011200,331.891632 &#10;&#9;C486.206543,331.897064 481.898926,331.897064 477.111603,331.897064 &#10;&#9;C477.479706,335.527161 477.617157,338.654297 478.141785,341.715027 &#10;&#9;C479.562775,350.005341 484.238708,354.546753 492.639557,354.874756 &#10;&#9;C502.775574,355.270538 512.940186,355.183960 523.085938,354.982452 &#10;&#9;C528.872070,354.867523 533.477478,352.774231 536.170166,346.832764 &#10;&#9;C538.698486,341.253815 544.033752,344.730499 548.169312,343.897308 &#10;&#9;C547.733704,357.258820 542.552185,363.262329 530.090881,363.985901 &#10;&#9;C517.807129,364.699158 505.477386,365.017212 493.173981,364.893616 &#10;&#9;C477.969635,364.740845 468.189178,356.390503 465.328400,341.488647 &#10;&#9;C463.422028,331.558258 463.830750,321.564667 466.513947,311.800842 &#10;&#9;C469.902740,299.469513 479.000305,292.208710 494.029663,291.219940 &#10;&#9;C504.084167,290.558472 514.330688,290.917969 524.348145,292.067902 &#10;&#9;C537.029785,293.523651 545.744507,302.673645 547.555420,315.223358 &#10;&#9;C548.283020,320.265198 548.096130,325.438995 548.385254,331.886200 &#10;&#9;C529.021057,331.886200 510.264648,331.886200 491.011200,331.891632 &#10;M480.732666,307.318176 &#10;&#9;C479.209167,311.896484 477.685638,316.474762 475.773224,322.221680 &#10;&#9;C496.796997,322.221680 516.153870,322.221680 535.550293,322.221680 &#10;&#9;C536.795471,311.142761 529.968872,302.663483 518.891724,301.842072 &#10;&#9;C515.906921,301.620728 512.916504,301.190979 509.936066,301.247040 &#10;&#9;C500.058533,301.432678 489.851227,300.061615 480.732666,307.318176 &#10;z"/>
<path fill="#F4393F" opacity="1.000000" stroke="none" d="&#10;M203.478668,301.202545 &#10;&#9;C195.923508,302.290894 188.604065,303.045258 183.335648,308.604187 &#10;&#9;C181.614670,310.420044 180.144623,313.314789 180.101486,315.743469 &#10;&#9;C179.817566,331.727386 179.954971,347.718781 179.954971,364.139343 &#10;&#9;C175.375732,364.139343 171.011963,364.139343 166.529160,364.139343 &#10;&#9;C166.380035,363.706818 166.091171,363.261047 166.092209,362.815918 &#10;&#9;C166.158981,334.488037 166.133926,306.159149 166.396729,277.832916 &#10;&#9;C166.496033,267.130585 167.593735,266.538788 179.044647,268.850372 &#10;&#9;C179.044647,273.822937 179.044662,278.924713 179.044662,284.026489 &#10;&#9;C179.044662,289.176453 179.044647,294.326416 179.044647,299.458008 &#10;&#9;C179.480835,299.548676 179.893341,299.773682 180.075638,299.652466 &#10;&#9;C197.549133,288.033661 216.419525,288.137695 235.674728,293.483032 &#10;&#9;C244.319641,295.882935 249.549973,302.033813 250.027222,311.250488 &#10;&#9;C250.937485,328.829651 251.558655,346.423767 252.312225,364.305511 &#10;&#9;C247.192307,364.305511 242.923660,364.305511 238.130478,364.305511 &#10;&#9;C238.050980,362.498627 237.926987,360.747925 237.904282,358.995911 &#10;&#9;C237.720795,344.837555 237.809967,330.669556 237.286438,316.524139 &#10;&#9;C236.994583,308.638275 231.393646,303.072693 223.334732,302.166718 &#10;&#9;C216.909622,301.444397 210.401428,301.461121 203.478668,301.202545 &#10;z"/>
<path fill="#F4393F" opacity="1.000000" stroke="none" d="&#10;M691.379395,364.572327 &#10;&#9;C687.740723,365.021179 687.537964,363.089661 687.548950,360.619720 &#10;&#9;C687.651123,337.634979 687.663086,314.649902 687.745483,291.665039 &#10;&#9;C687.766968,285.669037 688.221619,279.661316 687.959595,273.681671 &#10;&#9;C687.751526,268.933228 689.755249,267.405304 694.128723,267.811035 &#10;&#9;C695.905090,267.975830 697.709534,267.838226 699.826904,267.838226 &#10;&#9;C699.826904,278.697754 699.826904,289.143646 699.826904,299.469299 &#10;&#9;C700.451965,299.707336 700.887207,300.008850 701.026306,299.906830 &#10;&#9;C717.965454,287.479797 736.922180,289.656281 755.712646,292.976593 &#10;&#9;C765.419556,294.691833 770.639038,301.972992 771.024536,311.936646 &#10;&#9;C771.693359,329.223663 772.100159,346.520782 772.628357,364.199463 &#10;&#9;C768.064148,364.199463 764.012817,364.199463 759.234436,364.199463 &#10;&#9;C759.234436,362.169922 759.276550,360.245453 759.227722,358.323303 &#10;&#9;C758.860291,343.852936 758.850403,329.359558 757.947815,314.922211 &#10;&#9;C757.443787,306.859802 753.787903,303.072235 746.051575,302.642822 &#10;&#9;C735.804871,302.074127 725.397217,301.939514 715.230347,303.109833 &#10;&#9;C705.476257,304.232635 701.295471,309.581604 701.069031,319.386780 &#10;&#9;C700.727234,334.185608 700.979797,348.998169 700.979797,364.573029 &#10;&#9;C697.013733,364.573029 694.416809,364.573029 691.379395,364.572327 &#10;z"/>
<path fill="#F43C42" opacity="1.000000" stroke="none" d="&#10;M885.718262,350.313660 &#10;&#9;C891.857544,354.850037 897.710632,359.171051 904.691406,364.324585 &#10;&#9;C893.968994,364.616394 885.124329,365.852539 876.886414,358.575531 &#10;&#9;C867.200134,350.019104 856.160767,342.989349 845.658264,335.366364 &#10;&#9;C843.400696,333.727783 840.929443,332.383606 837.403442,330.184662 &#10;&#9;C837.403442,342.017456 837.403442,352.849060 837.403442,364.129578 &#10;&#9;C832.576050,364.129578 828.699768,364.129578 824.455688,364.129578 &#10;&#9;C824.455688,332.325287 824.455688,300.465149 824.455688,268.215454 &#10;&#9;C828.284546,268.215454 832.174072,268.215454 837.111450,268.215454 &#10;&#9;C837.111450,285.354767 837.111450,302.536560 837.111450,321.160583 &#10;&#9;C842.192505,318.290619 845.952148,316.352203 849.523682,314.113678 &#10;&#9;C858.824341,308.284241 868.153503,302.487244 877.243042,296.339783 &#10;&#9;C881.293518,293.600311 885.248596,292.101257 890.199890,292.830933 &#10;&#9;C893.390137,293.301086 896.705933,292.919250 900.248047,293.947723 &#10;&#9;C884.720825,304.350494 869.193542,314.753235 852.441833,325.976349 &#10;&#9;C863.920654,334.369507 874.676392,342.233887 885.718262,350.313660 &#10;z"/>
<path fill="#F4393F" opacity="1.000000" stroke="none" d="&#10;M299.035828,365.006958 &#10;&#9;C292.828796,364.168091 286.723267,364.331085 281.483612,362.280945 &#10;&#9;C270.704620,358.063446 266.296265,348.482574 265.475464,337.710449 &#10;&#9;C264.836365,329.322571 265.016449,320.661377 266.390106,312.380035 &#10;&#9;C268.493073,299.701508 277.306915,292.306488 293.101379,291.341736 &#10;&#9;C306.114594,290.546875 319.381714,291.475952 332.349304,293.117889 &#10;&#9;C343.223175,294.494751 351.427246,305.354736 351.956238,316.641785 &#10;&#9;C352.267883,323.291809 352.281891,329.970459 352.090454,336.626495 &#10;&#9;C351.616943,353.089569 341.071106,363.964935 324.513763,364.813354 &#10;&#9;C316.204132,365.239166 307.858582,364.964722 299.035828,365.006958 &#10;M317.899475,355.596375 &#10;&#9;C319.383392,355.414490 320.864136,355.199463 322.351776,355.056000 &#10;&#9;C333.215759,354.008331 338.344879,349.368378 339.125519,338.408203 &#10;&#9;C339.665558,330.826447 339.425751,323.114380 338.711578,315.538086 &#10;&#9;C337.924438,307.187439 333.369110,302.683319 325.124146,302.265808 &#10;&#9;C314.528870,301.729309 303.869720,301.614868 293.276886,302.124847 &#10;&#9;C284.173065,302.563141 278.136383,309.549133 277.992676,318.683533 &#10;&#9;C277.893250,325.003967 278.249695,331.330475 278.213409,337.653198 &#10;&#9;C278.143860,349.753662 283.676849,353.253296 294.600830,354.940277 &#10;&#9;C301.933380,356.072632 309.523376,355.538300 317.899475,355.596375 &#10;z"/>
<path fill="#F43A40" opacity="1.000000" stroke="none" d="&#10;M366.070740,342.999878 &#10;&#9;C366.070770,326.201965 366.070770,309.903961 366.070770,293.682648 &#10;&#9;C375.734802,291.159576 378.038330,292.263519 379.427032,299.609650 &#10;&#9;C384.786346,297.332458 390.040283,294.524994 395.632660,292.842316 &#10;&#9;C407.655060,289.224854 419.954071,289.342834 432.161987,291.994537 &#10;&#9;C442.129883,294.159668 449.194519,301.091766 449.600647,311.206726 &#10;&#9;C450.306061,328.775085 449.796722,346.392181 449.796722,364.282440 &#10;&#9;C445.962738,364.282440 442.219086,364.282440 437.817444,364.282440 &#10;&#9;C437.817444,353.501068 437.899445,342.895935 437.783020,332.292969 &#10;&#9;C437.724579,326.970947 437.456177,321.640320 437.014740,316.335876 &#10;&#9;C436.291016,307.638916 431.204285,302.275543 422.618408,302.135437 &#10;&#9;C412.837036,301.975861 402.958832,301.970337 393.277679,303.159637 &#10;&#9;C384.453094,304.243683 380.476440,308.990540 379.865479,317.902069 &#10;&#9;C379.058105,329.679535 378.973022,341.507568 378.635590,353.315521 &#10;&#9;C378.532166,356.934326 378.619568,360.558563 378.619568,364.362701 &#10;&#9;C374.047058,364.362701 370.431702,364.362701 366.070740,364.362701 &#10;&#9;C366.070740,357.317078 366.070740,350.408447 366.070740,342.999878 &#10;z"/>
<path fill="#F4393F" opacity="1.000000" stroke="none" d="&#10;M10.132872,362.492615 &#10;&#9;C10.112979,339.236298 10.112979,316.438110 10.112979,293.238159 &#10;&#9;C14.740409,293.238159 19.103735,293.238159 23.740334,293.238159 &#10;&#9;C23.740334,316.825684 23.740334,340.401611 23.740334,365.232300 &#10;&#9;C19.059565,364.446320 14.606164,363.698547 10.132872,362.492615 &#10;z"/>
<path fill="#F54046" opacity="1.000000" stroke="none" d="&#10;M792.330078,317.000000 &#10;&#9;C792.330139,308.847595 792.330139,301.195190 792.330139,293.145325 &#10;&#9;C796.477905,293.145325 800.368530,293.145325 804.614990,293.145325 &#10;&#9;C804.614990,316.632111 804.614990,340.185547 804.614990,364.173767 &#10;&#9;C800.854919,364.173767 796.981384,364.173767 792.329956,364.173767 &#10;&#9;C792.329956,348.660858 792.329956,333.080414 792.330078,317.000000 &#10;z"/>
<path fill="#F43C42" opacity="1.000000" stroke="none" d="&#10;M511.834412,386.416992 &#10;&#9;C524.015747,386.720978 526.228699,389.719147 524.106689,404.043945 &#10;&#9;C523.716553,406.677490 523.874329,409.482178 524.284119,412.129700 &#10;&#9;C527.056824,430.042053 524.731445,430.598816 510.134308,430.585785 &#10;&#9;C507.845001,430.583740 505.555725,430.585480 503.142883,430.585480 &#10;&#9;C503.142883,416.758667 502.910217,403.483368 503.254639,390.223053 &#10;&#9;C503.397308,384.730835 508.368378,387.071686 511.834412,386.416992 &#10;M515.712158,410.290405 &#10;&#9;C513.307678,410.290405 510.903168,410.290405 508.557556,410.290405 &#10;&#9;C508.557556,416.298065 508.557556,421.958313 508.557556,427.753143 &#10;&#9;C513.159302,427.720673 517.859985,428.998352 520.033081,423.732208 &#10;&#9;C521.995483,418.976807 520.374939,413.471710 515.712158,410.290405 &#10;M508.160339,392.802429 &#10;&#9;C508.160339,397.062347 508.160339,401.322266 508.160339,407.228455 &#10;&#9;C512.414246,405.448669 517.029175,404.926056 518.529114,402.487427 &#10;&#9;C519.979309,400.129669 519.320435,394.931000 517.501892,392.626190 &#10;&#9;C516.197571,390.973175 511.457306,392.031281 508.160339,392.802429 &#10;z"/>
<path fill="#F43F44" opacity="1.000000" stroke="none" d="&#10;M746.019470,386.980591 &#10;&#9;C748.970642,386.980713 751.447571,386.980713 754.949585,386.980713 &#10;&#9;C754.949585,393.480682 754.945801,399.574463 754.950562,405.668274 &#10;&#9;C754.955872,412.484436 755.133240,419.307434 754.850952,426.111481 &#10;&#9;C754.788513,427.616089 753.112000,429.053741 752.178711,430.522217 &#10;&#9;C751.389282,429.122803 750.091919,427.785248 749.912415,426.311554 &#10;&#9;C749.492126,422.860931 749.872070,419.307983 749.390686,415.871735 &#10;&#9;C749.162720,414.244232 747.397156,411.387726 746.855469,411.505859 &#10;&#9;C744.822449,411.949219 742.077209,412.939819 741.300171,414.547546 &#10;&#9;C739.596191,418.073181 738.948730,422.105927 737.835205,425.921509 &#10;&#9;C736.918640,429.062561 735.489258,431.505341 730.902893,430.057922 &#10;&#9;C732.439209,424.697540 734.207397,419.417297 735.373474,414.007294 &#10;&#9;C735.818909,411.940704 734.892700,409.576050 734.579285,407.348938 &#10;&#9;C733.880249,402.380829 732.510620,397.373413 732.809204,392.466919 &#10;&#9;C732.922302,390.607269 736.668762,388.540436 739.142090,387.395264 &#10;&#9;C740.952393,386.557098 743.388184,387.069855 746.019470,386.980591 &#10;M739.910828,405.825867 &#10;&#9;C743.024963,406.387238 746.139038,406.948639 749.526428,407.559296 &#10;&#9;C749.526428,401.381165 749.526428,396.299744 749.526428,390.135834 &#10;&#9;C745.506287,390.963623 740.619995,390.522339 738.665100,392.705658 &#10;&#9;C735.599731,396.129395 736.895996,401.150421 739.910828,405.825867 &#10;z"/>
<path fill="#F54248" opacity="1.000000" stroke="none" d="&#10;M589.226074,398.231995 &#10;&#9;C590.656860,386.338440 590.656067,386.358521 602.324890,386.817322 &#10;&#9;C604.970093,386.921356 607.622925,386.832672 611.380249,386.832672 &#10;&#9;C611.380249,392.528381 611.348511,397.784149 611.388000,403.039398 &#10;&#9;C611.441772,410.200928 611.761108,417.369720 611.500122,424.518372 &#10;&#9;C611.426331,426.539276 609.723999,428.500702 608.768555,430.489410 &#10;&#9;C607.908081,428.540802 606.362305,426.612762 606.303162,424.640167 &#10;&#9;C606.013855,414.986938 606.120056,405.321777 606.088074,395.660858 &#10;&#9;C606.083252,394.194061 606.087463,392.727264 606.087463,390.942078 &#10;&#9;C602.438599,390.942078 599.217773,390.942078 595.649292,390.942078 &#10;&#9;C594.731445,401.396454 593.942017,411.652130 592.896118,421.881561 &#10;&#9;C592.127380,429.400421 590.859192,430.511200 585.848633,430.127350 &#10;&#9;C586.960999,419.660919 588.075195,409.176880 589.226074,398.231995 &#10;z"/>
<path fill="#F54349" opacity="1.000000" stroke="none" d="&#10;M661.013733,396.033966 &#10;&#9;C661.427246,392.607574 661.830750,389.643280 662.362488,385.737091 &#10;&#9;C666.413269,390.830017 666.678528,424.541382 662.342407,430.511902 &#10;&#9;C661.976624,427.336212 661.456726,424.168701 661.286804,420.982544 &#10;&#9;C661.102783,417.531433 661.245117,414.062897 661.245117,410.318787 &#10;&#9;C657.123169,410.318787 653.380554,410.318787 648.943726,410.318787 &#10;&#9;C648.943726,415.593597 649.157288,420.867554 648.810669,426.104462 &#10;&#9;C648.709595,427.631256 647.010315,429.052277 646.043640,430.521759 &#10;&#9;C645.253540,429.095642 643.788513,427.673828 643.779358,426.242798 &#10;&#9;C643.701355,413.949066 643.866028,401.653412 644.037109,389.359406 &#10;&#9;C644.049072,388.500397 644.690918,387.650177 645.436584,385.824860 &#10;&#9;C650.126953,392.298737 648.174316,399.151611 649.451782,405.856628 &#10;&#9;C652.923889,405.544464 656.462891,405.226288 660.553040,404.858551 &#10;&#9;C660.706726,402.006378 660.855225,399.251251 661.013733,396.033966 &#10;z"/>
<path fill="#F43F44" opacity="1.000000" stroke="none" d="&#10;M719.833862,394.265594 &#10;&#9;C722.581055,406.275909 725.225708,417.901306 727.863647,429.497009 &#10;&#9;C723.927917,431.552277 722.295593,429.598846 721.556213,426.746490 &#10;&#9;C720.621826,423.141876 718.309631,421.704559 714.861328,421.167877 &#10;&#9;C711.434875,420.634705 709.320557,421.545044 708.975098,425.260376 &#10;&#9;C708.914124,425.916077 708.913879,426.749634 708.526428,427.170166 &#10;&#9;C707.416260,428.375092 706.121704,429.410034 704.899658,430.511902 &#10;&#9;C704.329895,429.032593 703.055603,427.420654 703.305054,426.095551 &#10;&#9;C704.870728,417.778351 706.753540,409.520081 708.578979,401.252808 &#10;&#9;C709.366089,397.687836 710.067871,394.082336 711.207397,390.626770 &#10;&#9;C711.709534,389.103851 713.205933,387.908783 714.250977,386.564880 &#10;&#9;C715.730408,387.895355 717.362549,389.097717 718.628174,390.607361 &#10;&#9;C719.317139,391.429108 719.383972,392.772522 719.833862,394.265594 &#10;M716.355957,402.350769 &#10;&#9;C716.036072,401.329987 715.716248,400.309204 715.396362,399.288422 &#10;&#9;C714.990906,399.263641 714.585510,399.238831 714.180115,399.214050 &#10;&#9;C713.300110,403.120422 712.309875,407.005920 711.564087,410.937805 &#10;&#9;C710.217590,418.037506 711.746765,419.321198 719.469116,416.962067 &#10;&#9;C718.538147,412.390594 717.590576,407.737701 716.355957,402.350769 &#10;z"/>
<path fill="#F43C42" opacity="1.000000" stroke="none" d="&#10;M691.948242,427.308655 &#10;&#9;C691.922729,421.427948 691.922729,415.974182 691.922729,411.026825 &#10;&#9;C691.222900,410.429749 691.110657,410.249146 690.979553,410.234283 &#10;&#9;C680.932251,409.094818 680.592773,409.383362 680.226440,419.256897 &#10;&#9;C680.133911,421.751038 680.250977,424.286377 679.812988,426.720245 &#10;&#9;C679.590942,427.953583 678.346680,429.002899 677.564636,430.135406 &#10;&#9;C676.831177,429.015015 675.535889,427.930542 675.461670,426.768066 &#10;&#9;C675.143860,421.792389 675.142151,416.794037 675.108276,411.803345 &#10;&#9;C675.067566,405.812378 675.026489,399.818909 675.161926,393.830505 &#10;&#9;C675.212891,391.574463 675.757385,389.329590 676.152649,386.546509 &#10;&#9;C681.743591,387.951965 679.962524,392.169739 680.394836,395.100555 &#10;&#9;C680.877075,398.368988 680.781372,401.722687 680.955505,405.429230 &#10;&#9;C684.439880,405.429230 687.801636,405.429230 691.880127,405.429230 &#10;&#9;C691.880127,400.412628 691.690735,395.464844 692.001221,390.548676 &#10;&#9;C692.088745,389.162476 693.640503,387.868774 694.520630,386.532654 &#10;&#9;C695.325562,387.805908 696.810974,389.069244 696.829712,390.353943 &#10;&#9;C697.006531,402.499146 696.992920,414.648743 696.839172,426.794586 &#10;&#9;C696.824036,427.988159 695.506897,429.165253 694.794067,430.350037 &#10;&#9;C693.854004,429.478577 692.913940,428.607086 691.948242,427.308655 &#10;z"/>
<path fill="#F43F44" opacity="1.000000" stroke="none" d="&#10;M786.183411,421.205017 &#10;&#9;C782.506897,421.552612 780.427185,422.813049 779.684692,426.527771 &#10;&#9;C779.343323,428.235199 776.878906,429.518250 775.377258,430.993744 &#10;&#9;C774.881775,430.619141 774.386292,430.244537 773.890808,429.869904 &#10;&#9;C774.247253,427.807922 774.523621,425.728333 774.973572,423.686981 &#10;&#9;C777.331848,412.988647 779.575439,402.259766 782.266235,391.644806 &#10;&#9;C782.754944,389.716797 785.135986,388.268433 786.643433,386.598633 &#10;&#9;C787.966492,388.271118 790.046753,389.764984 790.490356,391.645020 &#10;&#9;C793.455933,404.213562 796.072571,416.864471 798.861450,429.761108 &#10;&#9;C794.990051,431.395752 792.489136,430.898590 792.173645,426.086182 &#10;&#9;C791.946533,422.621948 789.994263,421.052399 786.183411,421.205017 &#10;M787.499695,401.278748 &#10;&#9;C787.170776,400.095978 786.841797,398.913208 786.512878,397.730438 &#10;&#9;C786.214600,397.709564 785.916321,397.688690 785.617981,397.667816 &#10;&#9;C784.243896,404.267609 782.869812,410.867401 781.476685,417.558563 &#10;&#9;C789.811768,418.347626 790.801208,417.316711 789.403442,410.308807 &#10;&#9;C788.853149,407.549805 788.299622,404.791412 787.499695,401.278748 &#10;z"/>
<path fill="#F54147" opacity="1.000000" stroke="none" d="&#10;M803.452148,421.711792 &#10;&#9;C803.603455,411.261871 803.859009,401.277954 803.888611,391.293304 &#10;&#9;C803.898010,388.129608 805.020447,386.662048 808.227112,386.802490 &#10;&#9;C810.552185,386.904297 812.899475,386.682312 815.209778,386.896576 &#10;&#9;C819.104187,387.257782 823.944397,386.612427 825.592163,391.181396 &#10;&#9;C827.790649,397.276825 827.395935,403.691406 824.618286,409.630737 &#10;&#9;C824.085999,410.768829 821.897217,411.431580 820.357849,411.739014 &#10;&#9;C816.798218,412.449951 813.168213,412.808685 809.008423,413.388031 &#10;&#9;C809.008423,417.272186 809.264832,421.244904 808.895813,425.158661 &#10;&#9;C808.721985,427.002350 807.346985,428.732788 806.516235,430.514526 &#10;&#9;C805.566956,428.898987 804.445557,427.354950 803.733459,425.640869 &#10;&#9;C803.311462,424.625122 803.535461,423.340973 803.452148,421.711792 &#10;M809.495056,393.298523 &#10;&#9;C809.495056,398.201721 809.495056,403.104919 809.495056,408.000000 &#10;&#9;C819.476013,409.188171 822.018616,406.801147 821.120911,397.142761 &#10;&#9;C820.558533,391.093109 815.373901,388.955261 809.495056,393.298523 &#10;z"/>
<path fill="#F54147" opacity="1.000000" stroke="none" d="&#10;M845.951782,386.948334 &#10;&#9;C854.398560,389.225159 855.760925,392.030304 854.510193,403.773438 &#10;&#9;C853.759705,410.820465 851.551392,412.121185 837.955017,413.169464 &#10;&#9;C837.955017,417.536743 838.160522,421.985229 837.837341,426.394958 &#10;&#9;C837.732117,427.831268 836.247437,429.166443 835.393616,430.547882 &#10;&#9;C834.506104,429.223145 832.862732,427.906097 832.849121,426.572449 &#10;&#9;C832.725708,414.451782 832.781372,402.325256 833.123108,390.209991 &#10;&#9;C833.158264,388.962799 835.267944,386.950928 836.641235,386.735382 &#10;&#9;C839.528015,386.282257 842.565247,386.787384 845.951782,386.948334 &#10;M838.105164,407.241425 &#10;&#9;C841.079041,407.056885 846.333191,407.557709 846.630493,406.568634 &#10;&#9;C847.889771,402.379181 848.585876,397.523132 847.567322,393.383148 &#10;&#9;C847.140442,391.648010 841.938660,391.087616 838.031067,389.676575 &#10;&#9;C838.031067,396.111664 838.031067,401.197845 838.105164,407.241425 &#10;z"/>
<path fill="#F43E43" opacity="1.000000" stroke="none" d="&#10;M555.269409,399.637573 &#10;&#9;C554.151794,401.405151 553.079407,402.785095 552.006958,404.165039 &#10;&#9;C551.176880,402.721649 550.155090,401.350189 549.578064,399.811859 &#10;&#9;C549.125122,398.604370 549.068298,397.186371 549.105103,395.869415 &#10;&#9;C549.192566,392.744690 547.554382,390.838501 544.678772,391.195709 &#10;&#9;C542.580017,391.456390 538.977661,393.039337 538.917480,394.183868 &#10;&#9;C538.380920,404.386078 538.300049,414.628540 538.672424,424.837769 &#10;&#9;C538.711060,425.896851 542.563904,427.557587 544.643066,427.551697 &#10;&#9;C546.130798,427.547546 548.110840,425.483582 548.956970,423.861664 &#10;&#9;C549.819702,422.208099 549.319824,419.895813 549.898804,418.020844 &#10;&#9;C550.203125,417.035278 551.541077,415.733521 552.407898,415.736755 &#10;&#9;C553.265564,415.739960 554.773499,417.141846 554.860840,418.040558 &#10;&#9;C555.278931,422.342041 555.738647,426.849152 551.513367,429.835907 &#10;&#9;C548.311157,432.099426 538.409607,432.736816 536.268127,430.301575 &#10;&#9;C534.557312,428.355957 533.215088,425.417450 533.101929,422.858093 &#10;&#9;C532.727783,414.393555 532.806152,405.895966 533.049500,397.420807 &#10;&#9;C533.291077,389.004852 535.507202,386.713104 542.672546,386.508820 &#10;&#9;C550.901978,386.274261 554.409546,389.275085 555.220947,397.258759 &#10;&#9;C555.288025,397.918854 555.284973,398.586060 555.269409,399.637573 &#10;z"/>
<path fill="#F54147" opacity="1.000000" stroke="none" d="&#10;M626.687256,386.667572 &#10;&#9;C630.569702,387.155609 634.004944,387.611969 637.440186,388.068359 &#10;&#9;C637.396423,388.711914 637.352722,389.355469 637.308960,389.999023 &#10;&#9;C633.138367,390.313782 628.967773,390.628571 624.455383,390.969147 &#10;&#9;C624.455383,395.697083 624.455383,400.435791 624.455383,405.231476 &#10;&#9;C628.070679,405.695953 631.622620,406.152252 635.174561,406.608582 &#10;&#9;C635.175415,407.356262 635.176270,408.103973 635.177124,408.851685 &#10;&#9;C631.646301,409.423218 628.115417,409.994720 624.345459,410.604980 &#10;&#9;C624.345459,415.583038 624.345459,420.665100 624.345459,425.940979 &#10;&#9;C628.973267,426.353699 633.416809,426.749969 637.860352,427.146240 &#10;&#9;C637.844421,427.780090 637.828552,428.413971 637.812683,429.047821 &#10;&#9;C631.847961,432.035492 625.396790,430.062744 618.845825,430.591370 &#10;&#9;C618.845825,415.639160 618.845825,401.228638 618.845825,386.259552 &#10;&#9;C621.407227,386.389954 623.823608,386.512939 626.687256,386.667572 &#10;z"/>
<path fill="#F54A50" opacity="1.000000" stroke="none" d="&#10;M887.828369,418.990326 &#10;&#9;C887.828247,421.597504 887.828247,423.714233 887.828247,425.767029 &#10;&#9;C892.940002,426.364594 897.496643,426.897278 902.053223,427.429962 &#10;&#9;C902.012939,428.181549 901.972595,428.933105 901.932251,429.684662 &#10;&#9;C895.438782,429.684662 888.945251,429.684662 882.519714,429.684662 &#10;&#9;C882.519714,416.890503 882.522583,403.772949 882.517212,390.655396 &#10;&#9;C882.516174,388.051666 883.624878,386.816162 886.396484,386.720490 &#10;&#9;C891.406616,386.547516 896.479126,385.383453 901.186523,387.774445 &#10;&#9;C901.237000,388.401520 901.287476,389.028595 901.338013,389.655670 &#10;&#9;C897.016174,390.159088 892.694397,390.662506 888.109131,391.196594 &#10;&#9;C888.109131,395.773926 888.109131,400.364502 888.109131,405.193085 &#10;&#9;C891.708496,405.663788 895.229736,406.124268 898.750977,406.584747 &#10;&#9;C898.762634,407.332001 898.774353,408.079224 898.786011,408.826477 &#10;&#9;C895.403015,409.396912 892.020081,409.967346 887.828430,410.674133 &#10;&#9;C887.828430,412.998627 887.828430,415.749268 887.828369,418.990326 &#10;z"/>
<path fill="#F54A50" opacity="1.000000" stroke="none" d="&#10;M567.749023,397.030457 &#10;&#9;C567.748962,399.987915 567.748962,402.456604 567.748962,405.172089 &#10;&#9;C571.632141,405.658630 575.140076,406.098145 578.648010,406.537659 &#10;&#9;C578.659912,407.295685 578.671753,408.053711 578.683655,408.811737 &#10;&#9;C575.309326,409.388824 571.934998,409.965881 568.133667,410.615967 &#10;&#9;C568.133667,415.462891 568.133667,420.637848 568.133667,425.808502 &#10;&#9;C572.658813,426.338074 576.984802,426.844330 581.310791,427.350586 &#10;&#9;C581.262512,428.115967 581.214294,428.881348 581.166077,429.646729 &#10;&#9;C574.986755,429.646729 568.807373,429.646729 562.478699,429.646729 &#10;&#9;C562.478699,416.809753 562.447815,403.422913 562.542297,390.036957 &#10;&#9;C562.549194,389.054565 563.339600,387.319763 563.972168,387.218048 &#10;&#9;C569.736511,386.291260 575.563416,385.430420 581.144470,387.532135 &#10;&#9;C581.192810,388.259338 581.241211,388.986542 581.289551,389.713745 &#10;&#9;C576.958496,390.188385 572.627380,390.663025 567.749146,391.197632 &#10;&#9;C567.749146,392.983643 567.749146,394.762634 567.749023,397.030457 &#10;z"/>
<path fill="#F54A50" opacity="1.000000" stroke="none" d="&#10;M860.051147,409.999969 &#10;&#9;C860.095825,403.667877 859.946655,397.823822 860.301086,392.010468 &#10;&#9;C860.414185,390.155945 861.864014,388.382935 862.702148,386.572632 &#10;&#9;C863.551331,388.259003 865.102966,389.931702 865.136047,391.633911 &#10;&#9;C865.355530,402.935913 865.249634,414.244263 865.249634,425.656647 &#10;&#9;C870.071228,426.307098 874.088318,426.849030 878.105408,427.390961 &#10;&#9;C878.070129,428.255829 878.034851,429.120667 877.999512,429.985535 &#10;&#9;C872.280762,430.285034 866.561951,430.584564 860.052429,430.925476 &#10;&#9;C860.052429,423.674988 860.052429,417.087433 860.051147,409.999969 &#10;z"/>
<path fill="#F43C42" opacity="1.000000" stroke="none" d="&#10;M11.863590,280.440277 &#10;&#9;C7.889786,269.175903 10.388947,266.529694 22.820013,268.720093 &#10;&#9;C22.820013,272.530273 22.820013,276.429382 22.820013,280.680298 &#10;&#9;C19.395962,280.680298 15.808712,280.680298 11.863590,280.440277 &#10;z"/>
<path fill="#F43A40" opacity="1.000000" stroke="none" d="&#10;M794.443542,280.980499 &#10;&#9;C793.365784,277.224182 792.639587,273.500000 792.243774,269.741028 &#10;&#9;C792.192383,269.252563 793.811829,268.146576 794.712524,268.080597 &#10;&#9;C797.647888,267.865601 800.608765,268.000092 803.827271,268.000092 &#10;&#9;C803.827271,272.680481 803.827271,276.576294 803.827271,281.001831 &#10;&#9;C800.787170,281.001831 797.842407,281.001831 794.443542,280.980499 &#10;z"/>
<path fill="#FFFEFE" opacity="1.000000" stroke="none" d="&#10;M543.736938,39.660633 &#10;&#9;C562.728638,28.122128 583.004761,21.047487 605.570862,16.616825 &#10;&#9;C605.570862,23.168694 606.136719,29.397081 605.477722,35.493053 &#10;&#9;C601.601440,71.349678 582.733826,99.158241 557.418640,123.294624 &#10;&#9;C539.094788,140.765182 518.016052,153.264130 492.652161,157.433273 &#10;&#9;C487.094208,158.346848 481.447906,158.722977 475.508667,159.383728 &#10;&#9;C474.151520,148.010773 475.788208,137.439743 478.547577,126.969498 &#10;&#9;C488.493164,89.231636 510.963470,60.823956 543.736938,39.660633 &#10;z"/>
<path fill="#FFFEFE" opacity="1.000000" stroke="none" d="&#10;M60.408295,279.370636 &#10;&#9;C83.880806,279.336792 107.031128,279.380249 130.160156,280.104065 &#10;&#9;C139.963791,280.410797 142.122910,283.465149 142.126541,293.381897 &#10;&#9;C142.128006,297.378387 142.208496,301.399689 141.812241,305.365631 &#10;&#9;C141.230682,311.186249 137.657761,314.892395 132.176270,314.924438 &#10;&#9;C108.359161,315.063629 84.540771,314.984161 60.077503,314.984161 &#10;&#9;C60.077503,303.887115 60.077503,291.805145 60.408295,279.370636 &#10;z"/>
<path fill="#FFFCFC" opacity="1.000000" stroke="none" d="&#10;M480.965576,307.021118 &#10;&#9;C489.851227,300.061615 500.058533,301.432678 509.936066,301.247040 &#10;&#9;C512.916504,301.190979 515.906921,301.620728 518.891724,301.842072 &#10;&#9;C529.968872,302.663483 536.795471,311.142761 535.550293,322.221680 &#10;&#9;C516.153870,322.221680 496.796997,322.221680 475.773224,322.221680 &#10;&#9;C477.685638,316.474762 479.209167,311.896484 480.965576,307.021118 &#10;z"/>
<path fill="#FFFDFD" opacity="1.000000" stroke="none" d="&#10;M317.448822,355.673035 &#10;&#9;C309.523376,355.538300 301.933380,356.072632 294.600830,354.940277 &#10;&#9;C283.676849,353.253296 278.143860,349.753662 278.213409,337.653198 &#10;&#9;C278.249695,331.330475 277.893250,325.003967 277.992676,318.683533 &#10;&#9;C278.136383,309.549133 284.173065,302.563141 293.276886,302.124847 &#10;&#9;C303.869720,301.614868 314.528870,301.729309 325.124146,302.265808 &#10;&#9;C333.369110,302.683319 337.924438,307.187439 338.711578,315.538086 &#10;&#9;C339.425751,323.114380 339.665558,330.826447 339.125519,338.408203 &#10;&#9;C338.344879,349.368378 333.215759,354.008331 322.351776,355.056000 &#10;&#9;C320.864136,355.199463 319.383392,355.414490 317.448822,355.673035 &#10;z"/>
<path fill="#FEF5F6" opacity="1.000000" stroke="none" d="&#10;M516.103699,410.423279 &#10;&#9;C520.374939,413.471710 521.995483,418.976807 520.033081,423.732208 &#10;&#9;C517.859985,428.998352 513.159302,427.720673 508.557556,427.753143 &#10;&#9;C508.557556,421.958313 508.557556,416.298065 508.557556,410.290405 &#10;&#9;C510.903168,410.290405 513.307678,410.290405 516.103699,410.423279 &#10;z"/>
<path fill="#FEF5F6" opacity="1.000000" stroke="none" d="&#10;M508.205139,392.341156 &#10;&#9;C511.457306,392.031281 516.197571,390.973175 517.501892,392.626190 &#10;&#9;C519.320435,394.931000 519.979309,400.129669 518.529114,402.487427 &#10;&#9;C517.029175,404.926056 512.414246,405.448669 508.160339,407.228455 &#10;&#9;C508.160339,401.322266 508.160339,397.062347 508.205139,392.341156 &#10;z"/>
<path fill="#FEF5F6" opacity="1.000000" stroke="none" d="&#10;M739.607178,405.552002 &#10;&#9;C736.895996,401.150421 735.599731,396.129395 738.665100,392.705658 &#10;&#9;C740.619995,390.522339 745.506287,390.963623 749.526428,390.135834 &#10;&#9;C749.526428,396.299744 749.526428,401.381165 749.526428,407.559296 &#10;&#9;C746.139038,406.948639 743.024963,406.387238 739.607178,405.552002 &#10;z"/>
<path fill="#FEF5F6" opacity="1.000000" stroke="none" d="&#10;M716.499512,402.717773 &#10;&#9;C717.590576,407.737701 718.538147,412.390594 719.469116,416.962067 &#10;&#9;C711.746765,419.321198 710.217590,418.037506 711.564087,410.937805 &#10;&#9;C712.309875,407.005920 713.300110,403.120422 714.180115,399.214050 &#10;&#9;C714.585510,399.238831 714.990906,399.263641 715.396362,399.288422 &#10;&#9;C715.716248,400.309204 716.036072,401.329987 716.499512,402.717773 &#10;z"/>
<path fill="#FEF5F6" opacity="1.000000" stroke="none" d="&#10;M787.623596,401.655762 &#10;&#9;C788.299622,404.791412 788.853149,407.549805 789.403442,410.308807 &#10;&#9;C790.801208,417.316711 789.811768,418.347626 781.476685,417.558563 &#10;&#9;C782.869812,410.867401 784.243896,404.267609 785.617981,397.667816 &#10;&#9;C785.916321,397.688690 786.214600,397.709564 786.512878,397.730438 &#10;&#9;C786.841797,398.913208 787.170776,400.095978 787.623596,401.655762 &#10;z"/>
<path fill="#FFFCFC" opacity="1.000000" stroke="none" d="&#10;M809.640747,392.883820 &#10;&#9;C815.373901,388.955261 820.558533,391.093109 821.120911,397.142761 &#10;&#9;C822.018616,406.801147 819.476013,409.188171 809.495056,408.000000 &#10;&#9;C809.495056,403.104919 809.495056,398.201721 809.640747,392.883820 &#10;z"/>
<path fill="#FFFCFC" opacity="1.000000" stroke="none" d="&#10;M838.068115,406.762726 &#10;&#9;C838.031067,401.197845 838.031067,396.111664 838.031067,389.676575 &#10;&#9;C841.938660,391.087616 847.140442,391.648010 847.567322,393.383148 &#10;&#9;C848.585876,397.523132 847.889771,402.379181 846.630493,406.568634 &#10;&#9;C846.333191,407.557709 841.079041,407.056885 838.068115,406.762726 &#10;z"/>
</svg>